<svg xmlns="http://www.w3.org/2000/svg" viewBox="0 0 255 165">
      <path d="M227.8125 236.6719 Q247.5 239.4844 259.6641 253.8984 Q271.8281 268.3125 271.8281 287.1562 Q271.8281 308.25 256.9219 323.1562 Q242.0156 338.0625 220.9219 338.0625 L52.7344 338.0625 Q37.8281 338.0625 27.2812 327.4453 Q16.7344 316.8281 16.7344 302.0625 Q16.7344 287.2969 27.2812 276.6797 Q37.8281 266.0625 52.7344 266.0625 Q59.2031 266.0625 65.9531 269.0156 Q68.7656 248.3438 83.6016 235.6172 Q98.4375 222.8906 117.8438 222.8906 Q135.1406 222.8906 147.2344 232.0312 Q150.1875 216.9844 161.2969 207.5625 Q172.4062 198.1406 187.4531 198.1406 Q203.3438 198.1406 215.0859 208.8984 Q226.8281 219.6562 227.8125 236.6719 ZM72.5625 279.8438 Q64.125 272.9531 52.7344 272.9531 Q40.9219 272.9531 32.2734 281.6016 Q23.625 290.25 23.625 302.0625 Q23.625 314.0156 32.2031 322.5938 Q40.7812 331.1719 52.7344 331.1719 L220.9219 331.1719 Q238.9219 331.1719 251.9297 318.1641 Q264.9375 305.1562 264.9375 287.1562 Q264.9375 269.0156 251.9297 256.0078 Q238.9219 243 220.9219 243 Q202.7812 243 189.7734 256.0078 Q176.7656 269.0156 176.7656 287.1562 L169.875 287.1562 Q169.875 266.0625 184.8516 251.0859 Q199.8281 236.1094 220.9219 236.1094 Q219.5156 222.4688 209.9531 213.75 Q200.3906 205.0312 187.4531 205.0312 Q173.6719 205.0312 163.8984 214.875 Q154.125 224.7188 154.125 238.3594 L154.125 244.4062 Q137.6719 229.7812 117.8438 229.7812 Q99.4219 229.7812 86.3438 243.4219 Q73.2656 257.0625 72.5625 279.8438 Z" stroke="black" stroke-width="8" transform="translate(-16,-180)"/>
    
</svg>